<?xml version="1.0" standalone="no"?>
<!DOCTYPE svg PUBLIC "-//W3C//DTD SVG 20010904//EN"
 "http://www.w3.org/TR/2001/REC-SVG-20010904/DTD/svg10.dtd">
<svg version="1.0" xmlns="http://www.w3.org/2000/svg"
 width="102.000000pt" height="102.000000pt" viewBox="0 0 102.000000 102.000000"
 preserveAspectRatio="xMidYMid meet">
<metadata>
Created by potrace 1.11, written by Peter Selinger 2001-2013
</metadata>
<g transform="translate(0.000000,102.000000) scale(0.100000,-0.100000)"
fill="#000000" stroke="none">
<path d="M507 1014 c-14 -14 -8 -84 7 -84 14 0 26 21 26 44 0 18 -24 48 -33
40z"/>
<path d="M662 1004 c-11 -20 -10 -69 1 -81 11 -10 37 19 37 41 0 12 -6 31 -14
41 -13 18 -14 18 -24 -1z"/>
<path d="M432 986 c-1 -13 5 -30 14 -37 14 -11 15 -9 12 21 -4 39 -23 51 -26
16z"/>
<path d="M360 965 c-11 -29 5 -80 34 -104 21 -17 27 -11 31 31 4 43 -9 74 -35
88 -17 9 -22 7 -30 -15z"/>
<path d="M574 965 c-24 -36 -30 -121 -12 -165 l15 -35 22 35 c31 50 36 78 22
129 -16 61 -26 68 -47 36z"/>
<path d="M295 971 c-8 -14 16 -61 32 -61 16 0 17 24 3 51 -12 20 -25 25 -35
10z"/>
<path d="M771 931 c-7 -5 -15 -28 -18 -52 l-5 -44 21 21 c36 34 38 97 2 75z"/>
<path d="M190 910 c0 -10 9 -24 20 -30 21 -11 23 -8 14 28 -8 27 -34 29 -34 2z"/>
<path d="M246 922 c-7 -11 21 -72 34 -72 13 0 13 36 0 61 -11 20 -25 25 -34
11z"/>
<path d="M467 923 c-18 -29 -7 -133 14 -133 12 0 29 44 29 75 0 28 -34 73 -43
58z"/>
<path d="M693 888 c-18 -38 -22 -54 -13 -68 10 -16 37 22 42 59 4 32 -15 38
-29 9z"/>
<path d="M149 858 c-3 -27 3 -44 23 -65 24 -26 38 -22 38 10 0 43 -57 94 -61
55z"/>
<path d="M322 833 c5 -44 22 -75 51 -92 18 -12 19 -10 14 34 -6 49 -18 69 -50
86 -18 10 -19 8 -15 -28z"/>
<path d="M825 844 c-27 -29 -33 -64 -12 -64 23 0 57 40 57 65 0 32 -15 32 -45
-1z"/>
<path d="M895 818 c-27 -16 -44 -40 -38 -55 6 -16 58 9 67 32 14 36 5 43 -29
23z"/>
<path d="M624 796 c-11 -28 -11 -51 -1 -71 10 -19 10 -19 18 0 11 29 11 73 -1
80 -6 3 -13 0 -16 -9z"/>
<path d="M234 776 c-9 -37 1 -106 19 -123 13 -13 16 -11 24 14 14 41 7 93 -16
116 l-20 20 -7 -27z"/>
<path d="M710 770 c-7 -17 -10 -33 -7 -37 11 -10 34 16 40 42 6 36 -18 32 -33
-5z"/>
<path d="M109 785 c-8 -33 10 -75 49 -117 37 -40 56 -37 49 6 -7 45 -33 83
-68 102 -16 8 -30 12 -30 9z"/>
<path d="M420 747 c0 -39 24 -68 34 -41 11 29 6 53 -14 64 -18 10 -20 8 -20
-23z"/>
<path d="M514 736 c-7 -31 -1 -81 10 -81 14 0 29 53 22 80 -8 32 -24 32 -32 1z"/>
<path d="M904 745 c-35 -15 -84 -63 -84 -83 0 -30 100 23 118 62 14 32 5 38
-34 21z"/>
<path d="M769 711 c-33 -34 -38 -61 -10 -61 21 0 71 53 71 76 0 23 -30 16 -61
-15z"/>
<path d="M317 723 c-11 -11 -8 -71 4 -79 14 -8 29 14 29 42 0 23 -23 48 -33
37z"/>
<path d="M20 711 c0 -18 28 -42 58 -50 38 -11 41 -3 10 26 -24 21 -68 37 -68
24z"/>
<path d="M926 679 c-33 -26 -35 -49 -3 -42 28 7 57 32 57 50 0 19 -23 16 -54
-8z"/>
<path d="M643 648 c-79 -82 -140 -230 -199 -481 -23 -96 -31 -117 -46 -117
-22 0 -22 -2 1 51 38 86 72 223 73 294 1 67 -24 213 -43 245 -5 9 -8 -21 -7
-75 1 -86 -15 -190 -32 -200 -5 -3 -22 24 -39 59 -32 64 -104 156 -123 156 -6
0 2 -16 16 -35 94 -123 110 -277 46 -447 -17 -46 -26 -58 -43 -59 -12 0 -44
-9 -72 -20 l-50 -19 100 7 c125 8 356 8 455 0 l75 -6 -50 14 c-27 8 -76 17
-108 21 -38 4 -61 12 -64 22 -11 27 14 148 43 207 28 57 125 166 218 244 21
18 36 35 33 37 -8 8 -83 -42 -168 -112 -88 -74 -95 -71 -73 32 12 62 29 96 88
187 25 37 7 34 -31 -5z"/>
<path d="M40 600 l-34 -17 32 -17 c35 -18 79 -21 116 -6 46 17 26 42 -44 53
-23 3 -47 -1 -70 -13z"/>
<path d="M790 598 c-36 -39 -21 -54 18 -18 12 12 22 25 22 30 0 17 -18 11 -40
-12z"/>
<path d="M904 606 c-61 -27 -52 -56 18 -56 25 0 46 8 65 24 15 13 26 27 23 29
-14 14 -78 16 -106 3z"/>
<path d="M336 543 c-11 -34 11 -93 34 -93 17 0 28 57 16 81 -14 30 -42 36 -50
12z"/>
<path d="M93 518 c-34 -16 -29 -37 7 -33 38 5 50 12 50 31 0 16 -25 17 -57 2z"/>
<path d="M195 508 c-40 -21 -59 -60 -27 -55 24 4 40 15 52 37 13 23 1 32 -25
18z"/>
<path d="M620 501 c-14 -28 -12 -58 5 -65 18 -6 45 30 45 61 0 29 -35 31 -50
4z"/>
<path d="M900 506 c16 -15 32 -19 64 -17 35 2 -4 31 -42 31 -32 0 -34 -2 -22
-14z"/>
<path d="M810 475 c0 -20 42 -46 68 -42 32 5 37 15 17 37 -22 24 -85 28 -85 5z"/>
<path d="M210 419 c-10 -18 -9 -20 12 -17 12 2 24 11 26 21 5 24 -25 22 -38
-4z"/>
<path d="M766 415 c-10 -26 19 -65 48 -65 14 0 4 48 -12 63 -23 21 -28 21 -36
2z"/>
<path d="M720 361 c0 -30 11 -51 26 -51 17 0 18 24 4 51 -14 24 -30 25 -30 0z"/>
</g>
</svg>
